<svg xmlns="http://www.w3.org/2000/svg" xmlns:xlink="http://www.w3.org/1999/xlink" viewBox="0 0 65.33 70.49"><defs><style>.cls-1,.cls-2,.cls-3,.cls-4,.cls-5{fill:none;stroke-miterlimit:10;}.cls-1{stroke:url(#linear-gradient);}.cls-2{stroke:url(#linear-gradient-2);}.cls-3{stroke:url(#linear-gradient-3);}.cls-4{stroke:url(#linear-gradient-4);}.cls-5{stroke:url(#linear-gradient-5);}</style><linearGradient id="linear-gradient" y1="35.24" x2="65.33" y2="35.24" gradientUnits="userSpaceOnUse"><stop offset="0.21" stop-color="#2d98d4"/><stop offset="0.35" stop-color="#5d78b7"/><stop offset="0.55" stop-color="#985293"/><stop offset="0.71" stop-color="#c2367a"/><stop offset="0.84" stop-color="#dc246a"/><stop offset="0.91" stop-color="#e61e64"/><stop offset="1" stop-color="#e81f64"/></linearGradient><linearGradient id="linear-gradient-2" x1="23.08" y1="36.34" x2="54.43" y2="36.34" xlink:href="#linear-gradient"/><linearGradient id="linear-gradient-3" x1="4.45" y1="30.47" x2="23.6" y2="30.47" xlink:href="#linear-gradient"/><linearGradient id="linear-gradient-4" x1="6.41" y1="20.47" x2="25.66" y2="20.47" xlink:href="#linear-gradient"/><linearGradient id="linear-gradient-5" x1="35.26" y1="23.12" x2="50.83" y2="23.12" xlink:href="#linear-gradient"/></defs><title>icon1</title><g id="Layer_2" data-name="Layer 2"><g id="Layer_2-2" data-name="Layer 2"><g id="_Group_" data-name="&lt;Group&gt;"><path id="_Compound_Path_" data-name="&lt;Compound Path&gt;" class="cls-1" d="M23.05,67.73A68.18,68.18,0,0,0,43.31,70c6-.11,12.28-.47,18-2.16l.53-.18a5,5,0,0,1,2.43-2,.63.63,0,0,0,.23-.18c-.31-3.65-.86-7.27-.9-10.95a4.45,4.45,0,0,1,.06-.78,51.45,51.45,0,0,1-.24-6.37c.18-4.84.87-9.66,1.34-14.48l-.21,0c0-.92.05-1.85,0-2.77C63.81,19.07,61.13,8.91,50.64,3,42.93-1.36,37.15.1,31.73,6.48c-1.75,2.07-3.37,4.67-5.65,5.79-7.39,3.64-15.21,6.42-22.57,10.11-4.07,2-3.79,3.23-.48,6.36C8.23,33.68,15,35.29,21.44,37.52c.47.16,1.23.63,1.21.9q-.87,10.95-1.94,21.88A59.54,59.54,0,0,0,23.05,67.73ZM7.15,26.09c3.49.23,7.06.18,10.41,1,2,.5,5.64-.49,5.54,3.55-.12,2.07.51,5.18-3,3.91A152.09,152.09,0,0,1,6.06,28.09c-.43-.21-.58-1-.87-1.51A6.56,6.56,0,0,1,7.15,26.09ZM25,15.77a24.3,24.3,0,0,0-.83,3.47c-.4,4.21-1.14,7.81-6.78,5.22-.45-.21-1.09,0-2,.07-1.82-.26-4-.54-6.13-.87a15.06,15.06,0,0,1-1.7-.46A10.23,10.23,0,0,1,9.2,22C13.1,20.19,17,18.37,21,16.7A23.32,23.32,0,0,1,25,15.77Zm-1.3,42.71c1.19-11.39,1-22.92,2.49-34.27,1.79-14,7-17.37,19.14-18.34A3.56,3.56,0,0,1,47.93,7.2a29.16,29.16,0,0,1,6,18.39c-.22,11.81-.74,23.62-1.2,35.43-.08,2,.19,4.59-2.73,4.75-4.4.23-8.82.06-13.23.06l-.09.86C34,66,31.36,65,28.67,64.86,24.12,64.7,23.22,63,23.69,58.48Z"/><path id="_Compound_Path_2" data-name="&lt;Compound Path&gt;" class="cls-2" d="M36.68,66.69C34,66,31.36,65,28.67,64.86c-4.55-.17-5.45-1.88-5-6.38,1.19-11.39,1-22.92,2.49-34.27,1.79-14,7-17.37,19.14-18.34A3.56,3.56,0,0,1,47.93,7.2a29.16,29.16,0,0,1,6,18.39c-.22,11.81-.74,23.62-1.2,35.43-.08,2,.19,4.59-2.73,4.75-4.4.23-8.82.06-13.23.06ZM50,26.3c.76-1.58.07-4.14-.61-6a8.69,8.69,0,0,0-3.17-3.95c-4.39-3-7.67-1.65-10,3.78-2,4.76,2.48,11.47,9.11,11.4C46.5,30.29,48.89,28.6,50,26.3Z"/><path id="_Path_" data-name="&lt;Path&gt;" class="cls-3" d="M23.1,30.66c.1-4-3.56-3.05-5.54-3.55-3.35-.84-6.92-.78-10.41-1a6.55,6.55,0,0,0-2,.5c.28.52.44,1.3.87,1.51a152.07,152.07,0,0,0,14.06,6.47C23.62,35.83,23,32.73,23.1,30.66Z"/><path id="_Path_2" data-name="&lt;Path&gt;" class="cls-4" d="M15.37,24.53c.92,0,1.56-.28,2-.07,5.64,2.6,6.38-1,6.78-5.22A24.3,24.3,0,0,1,25,15.77a23.32,23.32,0,0,0-4,.93C17,18.37,13.1,20.19,9.2,22A10.23,10.23,0,0,0,7.53,23.2a15.07,15.07,0,0,0,1.7.46C11.39,24,13.55,24.28,15.37,24.53Z"/><path id="_Path_3" data-name="&lt;Path&gt;" class="cls-5" d="M45.36,31.49c1.14-1.2,3.54-2.89,4.64-5.2.76-1.58.07-4.14-.61-6a8.69,8.69,0,0,0-3.17-3.95c-4.39-3-7.67-1.65-10,3.78C34.23,24.85,38.72,31.56,45.36,31.49Z"/></g></g></g></svg>